<mxfile host="app.diagrams.net" modified="2023-10-07T10:37:35.104Z" agent="Mozilla/5.0 (Windows NT 10.0; Win64; x64) AppleWebKit/537.36 (KHTML, like Gecko) Chrome/117.0.0.0 Safari/537.36" etag="-uIZIuIVPEP0XwTjrUn-" version="22.0.4" type="github" pages="3">
  <diagram name="第 1 页" id="Q9tEdCGek8aqWpYcxflV">
    <mxGraphModel dx="1020" dy="496" grid="0" gridSize="10" guides="1" tooltips="1" connect="1" arrows="1" fold="1" page="1" pageScale="1" pageWidth="1200" pageHeight="1920" math="0" shadow="0">
      <root>
        <mxCell id="0" />
        <mxCell id="1" parent="0" />
        <mxCell id="GPUp4i8ASlrH4IsffR4a-51" value="" style="rounded=0;whiteSpace=wrap;html=1;" parent="1" vertex="1">
          <mxGeometry x="50" y="510" width="650" height="270" as="geometry" />
        </mxCell>
        <mxCell id="GPUp4i8ASlrH4IsffR4a-48" value="" style="rounded=0;whiteSpace=wrap;html=1;dashed=1;" parent="1" vertex="1">
          <mxGeometry x="70" y="540" width="110" height="220" as="geometry" />
        </mxCell>
        <mxCell id="GPUp4i8ASlrH4IsffR4a-46" value="" style="rounded=0;whiteSpace=wrap;html=1;dashed=1;" parent="1" vertex="1">
          <mxGeometry x="190" y="540" width="500" height="220" as="geometry" />
        </mxCell>
        <mxCell id="GPUp4i8ASlrH4IsffR4a-2" value="xxx Layer" style="rounded=0;whiteSpace=wrap;html=1;" parent="1" vertex="1">
          <mxGeometry x="320" y="575" width="100" height="40" as="geometry" />
        </mxCell>
        <mxCell id="GPUp4i8ASlrH4IsffR4a-45" style="edgeStyle=orthogonalEdgeStyle;rounded=0;orthogonalLoop=1;jettySize=auto;html=1;exitX=1;exitY=0.5;exitDx=0;exitDy=0;entryX=0.16;entryY=0.55;entryDx=0;entryDy=0;entryPerimeter=0;" parent="1" source="GPUp4i8ASlrH4IsffR4a-3" target="GPUp4i8ASlrH4IsffR4a-27" edge="1">
          <mxGeometry relative="1" as="geometry" />
        </mxCell>
        <mxCell id="GPUp4i8ASlrH4IsffR4a-3" value="将数据发送至网络" style="rounded=0;whiteSpace=wrap;html=1;" parent="1" vertex="1">
          <mxGeometry x="730" y="579" width="70" height="160" as="geometry" />
        </mxCell>
        <mxCell id="GPUp4i8ASlrH4IsffR4a-4" value="网卡" style="text;html=1;strokeColor=none;fillColor=none;align=center;verticalAlign=middle;whiteSpace=wrap;rounded=0;" parent="1" vertex="1">
          <mxGeometry x="735" y="549" width="60" height="30" as="geometry" />
        </mxCell>
        <mxCell id="GPUp4i8ASlrH4IsffR4a-5" value="网络协议栈" style="text;html=1;strokeColor=none;fillColor=none;align=center;verticalAlign=middle;whiteSpace=wrap;rounded=0;" parent="1" vertex="1">
          <mxGeometry x="335" y="545" width="70" height="30" as="geometry" />
        </mxCell>
        <mxCell id="GPUp4i8ASlrH4IsffR4a-6" value="应用程序" style="rounded=1;whiteSpace=wrap;html=1;" parent="1" vertex="1">
          <mxGeometry x="80" y="600" width="90" height="30" as="geometry" />
        </mxCell>
        <mxCell id="GPUp4i8ASlrH4IsffR4a-7" value="ping" style="rounded=1;whiteSpace=wrap;html=1;" parent="1" vertex="1">
          <mxGeometry x="80" y="645" width="90" height="30" as="geometry" />
        </mxCell>
        <mxCell id="GPUp4i8ASlrH4IsffR4a-8" value="nslookup" style="rounded=1;whiteSpace=wrap;html=1;" parent="1" vertex="1">
          <mxGeometry x="80" y="690" width="90" height="30" as="geometry" />
        </mxCell>
        <mxCell id="GPUp4i8ASlrH4IsffR4a-9" value="" style="rounded=0;whiteSpace=wrap;html=1;" parent="1" vertex="1">
          <mxGeometry x="460" y="579" width="220" height="160" as="geometry" />
        </mxCell>
        <mxCell id="GPUp4i8ASlrH4IsffR4a-10" value="WFP" style="text;html=1;strokeColor=none;fillColor=none;align=center;verticalAlign=middle;whiteSpace=wrap;rounded=0;" parent="1" vertex="1">
          <mxGeometry x="530" y="549" width="60" height="30" as="geometry" />
        </mxCell>
        <mxCell id="GPUp4i8ASlrH4IsffR4a-13" value="过滤DNS&lt;br&gt;流量" style="rounded=0;whiteSpace=wrap;html=1;" parent="1" vertex="1">
          <mxGeometry x="471" y="619" width="50" height="110" as="geometry" />
        </mxCell>
        <mxCell id="GPUp4i8ASlrH4IsffR4a-16" value="Filter" style="text;html=1;strokeColor=none;fillColor=none;align=center;verticalAlign=middle;whiteSpace=wrap;rounded=0;" parent="1" vertex="1">
          <mxGeometry x="466" y="589" width="60" height="30" as="geometry" />
        </mxCell>
        <mxCell id="GPUp4i8ASlrH4IsffR4a-17" value="指定处理前、中、后的回调方法" style="rounded=0;whiteSpace=wrap;html=1;" parent="1" vertex="1">
          <mxGeometry x="543" y="619" width="50" height="110" as="geometry" />
        </mxCell>
        <mxCell id="GPUp4i8ASlrH4IsffR4a-18" value="Callout" style="text;html=1;strokeColor=none;fillColor=none;align=center;verticalAlign=middle;whiteSpace=wrap;rounded=0;" parent="1" vertex="1">
          <mxGeometry x="538" y="589" width="60" height="30" as="geometry" />
        </mxCell>
        <mxCell id="GPUp4i8ASlrH4IsffR4a-19" value="" style="endArrow=none;dashed=1;html=1;dashPattern=1 3;strokeWidth=2;rounded=0;" parent="1" edge="1">
          <mxGeometry width="50" height="50" relative="1" as="geometry">
            <mxPoint x="710" y="800" as="sourcePoint" />
            <mxPoint x="710" y="490" as="targetPoint" />
          </mxGeometry>
        </mxCell>
        <mxCell id="GPUp4i8ASlrH4IsffR4a-20" value="解析域名信息，决定是否放行" style="rounded=0;whiteSpace=wrap;html=1;" parent="1" vertex="1">
          <mxGeometry x="617" y="619" width="50" height="110" as="geometry" />
        </mxCell>
        <mxCell id="GPUp4i8ASlrH4IsffR4a-21" value="ClassifyFn" style="text;html=1;strokeColor=none;fillColor=none;align=center;verticalAlign=middle;whiteSpace=wrap;rounded=0;" parent="1" vertex="1">
          <mxGeometry x="612" y="589" width="60" height="30" as="geometry" />
        </mxCell>
        <mxCell id="GPUp4i8ASlrH4IsffR4a-23" value="xxx Layer" style="rounded=0;whiteSpace=wrap;html=1;" parent="1" vertex="1">
          <mxGeometry x="320" y="615" width="100" height="40" as="geometry" />
        </mxCell>
        <mxCell id="GPUp4i8ASlrH4IsffR4a-24" value="xxx Layer" style="rounded=0;whiteSpace=wrap;html=1;" parent="1" vertex="1">
          <mxGeometry x="320" y="655" width="100" height="40" as="geometry" />
        </mxCell>
        <mxCell id="GPUp4i8ASlrH4IsffR4a-25" value="xxx Layer" style="rounded=0;whiteSpace=wrap;html=1;" parent="1" vertex="1">
          <mxGeometry x="320" y="695" width="100" height="40" as="geometry" />
        </mxCell>
        <mxCell id="GPUp4i8ASlrH4IsffR4a-26" value="Windows API" style="rounded=0;whiteSpace=wrap;html=1;" parent="1" vertex="1">
          <mxGeometry x="220" y="590" width="60" height="130" as="geometry" />
        </mxCell>
        <mxCell id="GPUp4i8ASlrH4IsffR4a-27" value="NETWORK" style="ellipse;shape=cloud;whiteSpace=wrap;html=1;" parent="1" vertex="1">
          <mxGeometry x="830" y="615" width="120" height="80" as="geometry" />
        </mxCell>
        <mxCell id="GPUp4i8ASlrH4IsffR4a-33" value="" style="endArrow=classic;html=1;rounded=0;" parent="1" edge="1">
          <mxGeometry width="50" height="50" relative="1" as="geometry">
            <mxPoint x="170" y="614.5" as="sourcePoint" />
            <mxPoint x="210" y="614.5" as="targetPoint" />
          </mxGeometry>
        </mxCell>
        <mxCell id="GPUp4i8ASlrH4IsffR4a-34" value="" style="endArrow=classic;html=1;rounded=0;" parent="1" edge="1">
          <mxGeometry width="50" height="50" relative="1" as="geometry">
            <mxPoint x="170" y="659.5" as="sourcePoint" />
            <mxPoint x="210" y="659.5" as="targetPoint" />
          </mxGeometry>
        </mxCell>
        <mxCell id="GPUp4i8ASlrH4IsffR4a-35" value="" style="endArrow=classic;html=1;rounded=0;" parent="1" edge="1">
          <mxGeometry width="50" height="50" relative="1" as="geometry">
            <mxPoint x="170" y="704.5" as="sourcePoint" />
            <mxPoint x="210" y="704.5" as="targetPoint" />
          </mxGeometry>
        </mxCell>
        <mxCell id="GPUp4i8ASlrH4IsffR4a-36" value="" style="strokeWidth=2;html=1;shape=mxgraph.flowchart.annotation_2;align=left;labelPosition=right;pointerEvents=1;flipH=1;" parent="1" vertex="1">
          <mxGeometry x="290" y="585" width="20" height="140" as="geometry" />
        </mxCell>
        <mxCell id="GPUp4i8ASlrH4IsffR4a-37" value="" style="endArrow=classic;html=1;rounded=0;strokeWidth=3;" parent="1" edge="1">
          <mxGeometry width="50" height="50" relative="1" as="geometry">
            <mxPoint x="300" y="654.5" as="sourcePoint" />
            <mxPoint x="320" y="655" as="targetPoint" />
          </mxGeometry>
        </mxCell>
        <mxCell id="GPUp4i8ASlrH4IsffR4a-38" value="" style="endArrow=classic;html=1;rounded=0;" parent="1" edge="1">
          <mxGeometry width="50" height="50" relative="1" as="geometry">
            <mxPoint x="420" y="599" as="sourcePoint" />
            <mxPoint x="460" y="599" as="targetPoint" />
          </mxGeometry>
        </mxCell>
        <mxCell id="GPUp4i8ASlrH4IsffR4a-39" value="" style="endArrow=classic;html=1;rounded=0;" parent="1" edge="1">
          <mxGeometry width="50" height="50" relative="1" as="geometry">
            <mxPoint x="420" y="634.5" as="sourcePoint" />
            <mxPoint x="460" y="634.5" as="targetPoint" />
          </mxGeometry>
        </mxCell>
        <mxCell id="GPUp4i8ASlrH4IsffR4a-40" value="" style="endArrow=classic;html=1;rounded=0;" parent="1" edge="1">
          <mxGeometry width="50" height="50" relative="1" as="geometry">
            <mxPoint x="420" y="674.5" as="sourcePoint" />
            <mxPoint x="460" y="674.5" as="targetPoint" />
          </mxGeometry>
        </mxCell>
        <mxCell id="GPUp4i8ASlrH4IsffR4a-41" value="" style="endArrow=classic;html=1;rounded=0;" parent="1" edge="1">
          <mxGeometry width="50" height="50" relative="1" as="geometry">
            <mxPoint x="420" y="714.5" as="sourcePoint" />
            <mxPoint x="460" y="714.5" as="targetPoint" />
          </mxGeometry>
        </mxCell>
        <mxCell id="GPUp4i8ASlrH4IsffR4a-42" value="" style="endArrow=classic;html=1;rounded=0;" parent="1" edge="1">
          <mxGeometry width="50" height="50" relative="1" as="geometry">
            <mxPoint x="667" y="667.5" as="sourcePoint" />
            <mxPoint x="727" y="667.5" as="targetPoint" />
          </mxGeometry>
        </mxCell>
        <mxCell id="GPUp4i8ASlrH4IsffR4a-43" value="" style="endArrow=classic;html=1;rounded=0;" parent="1" edge="1">
          <mxGeometry width="50" height="50" relative="1" as="geometry">
            <mxPoint x="594" y="669" as="sourcePoint" />
            <mxPoint x="613" y="669" as="targetPoint" />
          </mxGeometry>
        </mxCell>
        <mxCell id="GPUp4i8ASlrH4IsffR4a-44" value="" style="endArrow=classic;html=1;rounded=0;" parent="1" edge="1">
          <mxGeometry width="50" height="50" relative="1" as="geometry">
            <mxPoint x="521" y="669" as="sourcePoint" />
            <mxPoint x="540" y="669" as="targetPoint" />
          </mxGeometry>
        </mxCell>
        <mxCell id="GPUp4i8ASlrH4IsffR4a-49" value="内核层" style="text;html=1;strokeColor=none;fillColor=none;align=center;verticalAlign=middle;whiteSpace=wrap;rounded=0;" parent="1" vertex="1">
          <mxGeometry x="400" y="510" width="60" height="30" as="geometry" />
        </mxCell>
        <mxCell id="GPUp4i8ASlrH4IsffR4a-50" value="应用层" style="text;html=1;strokeColor=none;fillColor=none;align=center;verticalAlign=middle;whiteSpace=wrap;rounded=0;" parent="1" vertex="1">
          <mxGeometry x="95" y="510" width="60" height="30" as="geometry" />
        </mxCell>
        <mxCell id="GPUp4i8ASlrH4IsffR4a-52" value="Windows 操作系统" style="text;html=1;strokeColor=none;fillColor=none;align=center;verticalAlign=middle;whiteSpace=wrap;rounded=0;" parent="1" vertex="1">
          <mxGeometry x="320" y="480" width="120" height="30" as="geometry" />
        </mxCell>
      </root>
    </mxGraphModel>
  </diagram>
  <diagram id="BClMbUuCU9lt1SZ4iEn_" name="第 2 页">
    <mxGraphModel dx="1020" dy="496" grid="0" gridSize="10" guides="1" tooltips="1" connect="1" arrows="1" fold="1" page="1" pageScale="1" pageWidth="1200" pageHeight="1920" math="0" shadow="0">
      <root>
        <mxCell id="0" />
        <mxCell id="1" parent="0" />
        <mxCell id="DlZZbuvY_ccrXcdxWsB4-8" style="edgeStyle=orthogonalEdgeStyle;rounded=0;orthogonalLoop=1;jettySize=auto;html=1;exitX=0.75;exitY=0;exitDx=0;exitDy=0;entryX=0.75;entryY=1;entryDx=0;entryDy=0;" parent="1" source="DlZZbuvY_ccrXcdxWsB4-1" target="DlZZbuvY_ccrXcdxWsB4-2" edge="1">
          <mxGeometry relative="1" as="geometry" />
        </mxCell>
        <mxCell id="DlZZbuvY_ccrXcdxWsB4-1" value="C++ 驱动" style="rounded=0;whiteSpace=wrap;html=1;" parent="1" vertex="1">
          <mxGeometry x="110" y="370" width="120" height="60" as="geometry" />
        </mxCell>
        <mxCell id="DlZZbuvY_ccrXcdxWsB4-7" style="edgeStyle=orthogonalEdgeStyle;rounded=0;orthogonalLoop=1;jettySize=auto;html=1;exitX=0.25;exitY=1;exitDx=0;exitDy=0;entryX=0.25;entryY=0;entryDx=0;entryDy=0;" parent="1" source="DlZZbuvY_ccrXcdxWsB4-2" target="DlZZbuvY_ccrXcdxWsB4-1" edge="1">
          <mxGeometry relative="1" as="geometry" />
        </mxCell>
        <mxCell id="DlZZbuvY_ccrXcdxWsB4-2" value="Golang 应用程序" style="rounded=0;whiteSpace=wrap;html=1;" parent="1" vertex="1">
          <mxGeometry x="110" y="210" width="120" height="60" as="geometry" />
        </mxCell>
        <mxCell id="DlZZbuvY_ccrXcdxWsB4-3" value="MQTT Server" style="image;aspect=fixed;html=1;points=[];align=center;fontSize=12;image=img/lib/azure2/mixed_reality/Remote_Rendering.svg;" parent="1" vertex="1">
          <mxGeometry x="380" y="80" width="70.83" height="50" as="geometry" />
        </mxCell>
        <mxCell id="DlZZbuvY_ccrXcdxWsB4-6" value="JAVA 后端" style="image;aspect=fixed;perimeter=ellipsePerimeter;html=1;align=center;shadow=0;dashed=0;spacingTop=3;image=img/lib/active_directory/generic_server.svg;" parent="1" vertex="1">
          <mxGeometry x="620" y="180" width="39.2" height="70" as="geometry" />
        </mxCell>
        <mxCell id="DlZZbuvY_ccrXcdxWsB4-9" value="IOCTL通信" style="text;html=1;strokeColor=none;fillColor=none;align=center;verticalAlign=middle;whiteSpace=wrap;rounded=0;" parent="1" vertex="1">
          <mxGeometry x="137.5" y="310" width="65" height="20" as="geometry" />
        </mxCell>
        <mxCell id="DlZZbuvY_ccrXcdxWsB4-11" value="" style="endArrow=classic;startArrow=classic;html=1;rounded=0;" parent="1" edge="1">
          <mxGeometry width="50" height="50" relative="1" as="geometry">
            <mxPoint x="250" y="200" as="sourcePoint" />
            <mxPoint x="360" y="120" as="targetPoint" />
          </mxGeometry>
        </mxCell>
        <mxCell id="DlZZbuvY_ccrXcdxWsB4-12" value="" style="endArrow=classic;startArrow=classic;html=1;rounded=0;" parent="1" edge="1">
          <mxGeometry width="50" height="50" relative="1" as="geometry">
            <mxPoint x="480" y="120" as="sourcePoint" />
            <mxPoint x="590" y="190" as="targetPoint" />
          </mxGeometry>
        </mxCell>
        <mxCell id="DlZZbuvY_ccrXcdxWsB4-15" value="拦截记录上报&lt;br&gt;安全策略接收" style="text;html=1;strokeColor=none;fillColor=none;align=center;verticalAlign=middle;whiteSpace=wrap;rounded=0;" parent="1" vertex="1">
          <mxGeometry x="220" y="120" width="100" height="30" as="geometry" />
        </mxCell>
        <mxCell id="DlZZbuvY_ccrXcdxWsB4-16" value="拦截记录接收&lt;br&gt;安全策略下发" style="text;html=1;strokeColor=none;fillColor=none;align=center;verticalAlign=middle;whiteSpace=wrap;rounded=0;" parent="1" vertex="1">
          <mxGeometry x="510" y="110" width="100" height="30" as="geometry" />
        </mxCell>
      </root>
    </mxGraphModel>
  </diagram>
  <diagram id="KdL-ZbaeEXxL1BwRons3" name="第 3 页">
    <mxGraphModel dx="1020" dy="496" grid="0" gridSize="10" guides="1" tooltips="1" connect="1" arrows="1" fold="1" page="1" pageScale="1" pageWidth="1200" pageHeight="1920" math="0" shadow="0">
      <root>
        <mxCell id="0" />
        <mxCell id="1" parent="0" />
        <mxCell id="eJobScrM9ezWKZmiSNyH-9" style="edgeStyle=orthogonalEdgeStyle;rounded=0;orthogonalLoop=1;jettySize=auto;html=1;exitX=1;exitY=0.5;exitDx=0;exitDy=0;entryX=0;entryY=0.5;entryDx=0;entryDy=0;" edge="1" parent="1" source="eJobScrM9ezWKZmiSNyH-1" target="eJobScrM9ezWKZmiSNyH-2">
          <mxGeometry relative="1" as="geometry" />
        </mxCell>
        <mxCell id="eJobScrM9ezWKZmiSNyH-1" value="WFP对网络驱动程序" style="rounded=0;whiteSpace=wrap;html=1;" vertex="1" parent="1">
          <mxGeometry x="80" y="165" width="150" height="50" as="geometry" />
        </mxCell>
        <mxCell id="eJobScrM9ezWKZmiSNyH-10" style="edgeStyle=orthogonalEdgeStyle;rounded=0;orthogonalLoop=1;jettySize=auto;html=1;exitX=1;exitY=0.5;exitDx=0;exitDy=0;entryX=0;entryY=0.5;entryDx=0;entryDy=0;" edge="1" parent="1" source="eJobScrM9ezWKZmiSNyH-2" target="eJobScrM9ezWKZmiSNyH-3">
          <mxGeometry relative="1" as="geometry" />
        </mxCell>
        <mxCell id="eJobScrM9ezWKZmiSNyH-13" style="edgeStyle=orthogonalEdgeStyle;rounded=0;orthogonalLoop=1;jettySize=auto;html=1;exitX=0.5;exitY=1;exitDx=0;exitDy=0;entryX=0.5;entryY=0;entryDx=0;entryDy=0;" edge="1" parent="1" source="eJobScrM9ezWKZmiSNyH-2" target="eJobScrM9ezWKZmiSNyH-6">
          <mxGeometry relative="1" as="geometry" />
        </mxCell>
        <mxCell id="eJobScrM9ezWKZmiSNyH-2" value="是否是UDP数据包" style="rhombus;whiteSpace=wrap;html=1;" vertex="1" parent="1">
          <mxGeometry x="290" y="165" width="180" height="50" as="geometry" />
        </mxCell>
        <mxCell id="eJobScrM9ezWKZmiSNyH-11" style="edgeStyle=orthogonalEdgeStyle;rounded=0;orthogonalLoop=1;jettySize=auto;html=1;exitX=1;exitY=0.5;exitDx=0;exitDy=0;entryX=0.5;entryY=0;entryDx=0;entryDy=0;" edge="1" parent="1" source="eJobScrM9ezWKZmiSNyH-3" target="eJobScrM9ezWKZmiSNyH-4">
          <mxGeometry relative="1" as="geometry" />
        </mxCell>
        <mxCell id="eJobScrM9ezWKZmiSNyH-16" style="edgeStyle=orthogonalEdgeStyle;rounded=0;orthogonalLoop=1;jettySize=auto;html=1;exitX=0.5;exitY=1;exitDx=0;exitDy=0;entryX=0.5;entryY=0;entryDx=0;entryDy=0;" edge="1" parent="1" source="eJobScrM9ezWKZmiSNyH-3" target="eJobScrM9ezWKZmiSNyH-6">
          <mxGeometry relative="1" as="geometry" />
        </mxCell>
        <mxCell id="eJobScrM9ezWKZmiSNyH-3" value="目标端口是否是53" style="rhombus;whiteSpace=wrap;html=1;" vertex="1" parent="1">
          <mxGeometry x="510" y="165" width="180" height="50" as="geometry" />
        </mxCell>
        <mxCell id="eJobScrM9ezWKZmiSNyH-12" style="edgeStyle=orthogonalEdgeStyle;rounded=0;orthogonalLoop=1;jettySize=auto;html=1;exitX=0.5;exitY=1;exitDx=0;exitDy=0;entryX=0.5;entryY=0;entryDx=0;entryDy=0;" edge="1" parent="1" source="eJobScrM9ezWKZmiSNyH-4" target="eJobScrM9ezWKZmiSNyH-5">
          <mxGeometry relative="1" as="geometry" />
        </mxCell>
        <mxCell id="eJobScrM9ezWKZmiSNyH-4" value="根据DNS报文格式进行解析，取出域名字符串" style="rounded=0;whiteSpace=wrap;html=1;" vertex="1" parent="1">
          <mxGeometry x="630" y="240" width="160" height="50" as="geometry" />
        </mxCell>
        <mxCell id="eJobScrM9ezWKZmiSNyH-17" style="edgeStyle=orthogonalEdgeStyle;rounded=0;orthogonalLoop=1;jettySize=auto;html=1;exitX=0;exitY=0.5;exitDx=0;exitDy=0;" edge="1" parent="1" source="eJobScrM9ezWKZmiSNyH-5" target="eJobScrM9ezWKZmiSNyH-6">
          <mxGeometry relative="1" as="geometry" />
        </mxCell>
        <mxCell id="eJobScrM9ezWKZmiSNyH-18" style="edgeStyle=orthogonalEdgeStyle;rounded=0;orthogonalLoop=1;jettySize=auto;html=1;exitX=0.5;exitY=1;exitDx=0;exitDy=0;entryX=0.5;entryY=0;entryDx=0;entryDy=0;" edge="1" parent="1" source="eJobScrM9ezWKZmiSNyH-5" target="eJobScrM9ezWKZmiSNyH-7">
          <mxGeometry relative="1" as="geometry" />
        </mxCell>
        <mxCell id="eJobScrM9ezWKZmiSNyH-5" value="是否是恶意域名" style="rhombus;whiteSpace=wrap;html=1;" vertex="1" parent="1">
          <mxGeometry x="620" y="355" width="180" height="50" as="geometry" />
        </mxCell>
        <mxCell id="eJobScrM9ezWKZmiSNyH-6" value="放行数据包" style="rounded=0;whiteSpace=wrap;html=1;" vertex="1" parent="1">
          <mxGeometry x="300" y="355" width="160" height="50" as="geometry" />
        </mxCell>
        <mxCell id="eJobScrM9ezWKZmiSNyH-7" value="阻断数据包" style="rounded=0;whiteSpace=wrap;html=1;" vertex="1" parent="1">
          <mxGeometry x="630" y="445" width="160" height="50" as="geometry" />
        </mxCell>
        <mxCell id="eJobScrM9ezWKZmiSNyH-20" value="网络数据流量" style="ellipse;whiteSpace=wrap;html=1;" vertex="1" parent="1">
          <mxGeometry x="90" y="280" width="140" height="50" as="geometry" />
        </mxCell>
        <mxCell id="eJobScrM9ezWKZmiSNyH-21" value="" style="shape=flexArrow;endArrow=classic;html=1;rounded=0;" edge="1" parent="1">
          <mxGeometry width="50" height="50" relative="1" as="geometry">
            <mxPoint x="160" y="280" as="sourcePoint" />
            <mxPoint x="160" y="220" as="targetPoint" />
          </mxGeometry>
        </mxCell>
        <mxCell id="eJobScrM9ezWKZmiSNyH-22" value="是" style="text;html=1;strokeColor=none;fillColor=none;align=center;verticalAlign=middle;whiteSpace=wrap;rounded=0;" vertex="1" parent="1">
          <mxGeometry x="456" y="161" width="60" height="30" as="geometry" />
        </mxCell>
        <mxCell id="eJobScrM9ezWKZmiSNyH-23" value="是" style="text;html=1;strokeColor=none;fillColor=none;align=center;verticalAlign=middle;whiteSpace=wrap;rounded=0;" vertex="1" parent="1">
          <mxGeometry x="695" y="183" width="60" height="30" as="geometry" />
        </mxCell>
        <mxCell id="eJobScrM9ezWKZmiSNyH-24" value="是" style="text;html=1;strokeColor=none;fillColor=none;align=center;verticalAlign=middle;whiteSpace=wrap;rounded=0;" vertex="1" parent="1">
          <mxGeometry x="699" y="405" width="60" height="30" as="geometry" />
        </mxCell>
        <mxCell id="eJobScrM9ezWKZmiSNyH-25" value="否" style="text;html=1;strokeColor=none;fillColor=none;align=center;verticalAlign=middle;whiteSpace=wrap;rounded=0;" vertex="1" parent="1">
          <mxGeometry x="327" y="232" width="60" height="30" as="geometry" />
        </mxCell>
        <mxCell id="eJobScrM9ezWKZmiSNyH-26" value="否" style="text;html=1;strokeColor=none;fillColor=none;align=center;verticalAlign=middle;whiteSpace=wrap;rounded=0;" vertex="1" parent="1">
          <mxGeometry x="530" y="250" width="60" height="30" as="geometry" />
        </mxCell>
        <mxCell id="eJobScrM9ezWKZmiSNyH-27" value="否" style="text;html=1;strokeColor=none;fillColor=none;align=center;verticalAlign=middle;whiteSpace=wrap;rounded=0;" vertex="1" parent="1">
          <mxGeometry x="530" y="352" width="60" height="30" as="geometry" />
        </mxCell>
      </root>
    </mxGraphModel>
  </diagram>
</mxfile>
